<?xml version="1.0" encoding="UTF-8"?>
<svg id="Layer_2" data-name="Layer 2" xmlns="http://www.w3.org/2000/svg" viewBox="0 0 156 49.4">
  <defs>
    <style>
      .cls-1 {
        fill: red;
      }
    </style>
  </defs>
  <g id="_1" data-name="1">
    <g>
      <g>
        <path class="cls-1" d="M117.48,23.66c-.39-1.38-1.18-2.49-2.39-3.25-1.19-.75-2.52-.98-3.9-.86-1.59.14-3.02.72-4.3,1.68-.36.27-.7.57-1.08.88-1.43-1.77-3.28-2.75-5.56-2.77-2.29-.02-4.16.94-5.62,2.78-.03-.12-.04-.15-.04-.19,0-.51-.01-1.02,0-1.53,0-.22-.07-.28-.28-.27-1.09,0-2.18,0-3.27,0-1.43,0-2.86,0-4.28,0-.19,0-.27.05-.25.25.02.29.03.59.03.88,0,5.57,0,11.14,0,16.72v.28c.1,0,.17.02.24.02,2.7,0,5.4,0,8.1,0,.35,0,.35,0,.35-.36,0-3.16,0-6.32,0-9.47,0-.33.05-.67.15-.99.21-.67.88-1.12,1.52-1.07.57.04,1.08.55,1.2,1.25.07.42.11.86.11,1.29,0,3.03,0,6.06,0,9.08,0,.2.05.29.28.29,1.57,0,3.15,0,4.72,0,1.07,0,2.15-.01,3.22,0,.26,0,.33-.08.33-.34,0-3.18,0-6.35,0-9.53,0-.28,0-.56.06-.83.08-.4.22-.78.56-1.04.58-.45,1.4-.18,1.77.36.34.5.45,1.06.45,1.65,0,3.14,0,6.28,0,9.42,0,.21.04.31.28.31,2.41,0,4.81,0,7.22,0,.24,0,.47,0,.72,0v-.41c0-3.9,0-7.8,0-11.71,0-.85-.08-1.69-.31-2.51Z"/>
        <path class="cls-1" d="M24.75,23.98c-3.36,0-6.71,0-10.07,0-.25,0-.3.09-.3.31,0,1.76,0,3.53,0,5.29,0,.08,0,.17.02.27.11,0,.21.01.3.01.7,0,1.4-.01,2.1,0,.19,0,.39.08.55.18.47.29.34,1.13.04,1.46-.28.32-.66.35-1.03.42-1.27.22-2.52.14-3.69-.42-1.45-.7-2.32-1.89-2.68-3.44-.27-1.16-.28-2.33,0-3.49.23-.96.69-1.8,1.43-2.46.78-.69,1.69-1.13,2.7-1.4,1.3-.35,2.62-.43,3.96-.35,1.26.08,2.49.29,3.7.67,1.12.35,2.19.77,3.09,1.56,0-.36,0-.72,0-1.07-.05-2.08-.1-4.17-.15-6.25-.01-.42-.01-.42-.42-.5-1.03-.22-2.06-.43-3.08-.68-1.32-.32-2.65-.47-4-.5-1.57-.04-3.13,0-4.68.21-1.19.17-2.38.38-3.55.67-1.54.38-2.95,1.1-4.2,2.09-.83.66-1.58,1.39-2.22,2.23-.64.83-1.16,1.73-1.58,2.69-.45,1.03-.75,2.09-.9,3.2-.18,1.29-.12,2.58.1,3.87.36,2.12,1.25,3.98,2.7,5.57.9.99,1.97,1.78,3.15,2.42,1.28.71,2.64,1.2,4.06,1.56,1.5.37,3.02.58,4.55.66,1.59.09,3.18.02,4.76-.16,1.82-.2,3.62-.53,5.38-1.02.22-.06.28-.15.28-.36,0-4.3,0-8.6,0-12.9,0-.26-.07-.33-.33-.33Z"/>
        <path class="cls-1" d="M68.78,19.96c-.21,0-.37,0-.53,0-2.59.02-5.19.04-7.78.06-.16,0-.23.06-.27.21-.12.41-.25.82-.38,1.24-.36,1.18-.72,2.36-1.07,3.54-.46,1.51-.91,3.02-1.36,4.53-.01.04-.05.08-.11.15-.04-.13-.08-.21-.1-.3-.23-.91-.46-1.82-.69-2.73-.55-2.11-1.1-4.22-1.64-6.34-.06-.22-.16-.3-.39-.3-2.76,0-5.52,0-8.28,0-.08,0-.17,0-.28.02.03.1.05.17.07.24.26.67.53,1.33.79,2,.83,2.11,1.67,4.22,2.5,6.33.81,2.07,1.62,4.14,2.43,6.21.53,1.36,1.06,2.71,1.59,4.07.04.1.06.22.04.32-.28,1.14-.66,2.23-1.35,3.2-.56.77-1.3,1.27-2.25,1.42-1.15.17-2.25-.11-3.32-.47-.55-.19-1.09-.41-1.69-.63.02.15.03.25.05.35.3,1.66.6,3.33.89,4.99.03.17.1.25.27.3.83.22,1.65.52,2.49.67,1.05.19,2.11.34,3.18.38.91.04,1.82-.13,2.7-.42,1.08-.36,1.99-.96,2.69-1.86.82-1.05,1.55-2.17,2.15-3.37.72-1.43,1.46-2.85,2.07-4.32.98-2.4,1.87-4.84,2.77-7.27.9-2.44,1.74-4.91,2.67-7.34.57-1.48,1.27-2.91,1.91-4.36.07-.15.15-.3.24-.51Z"/>
        <path class="cls-1" d="M150.5,22.33c-1.38-.48-2.8-.6-4.24-.51-.3.02-.59.04-.98.07,1.52-2.9,3.32-5.53,5.45-8.02-.18,0-.28,0-.38,0-1.05.01-2.09.03-3.14.04-2.15,0-4.31.01-6.46.01-.21,0-.36.06-.49.23-.33.45-.69.88-.99,1.36-.67,1.07-1.34,2.15-1.96,3.24-.67,1.18-1.19,2.43-1.66,3.7-.63,1.69-1.09,3.42-1.32,5.2-.14,1.06-.16,2.12-.04,3.18.2,1.75.75,3.35,1.94,4.7.88,1,1.97,1.69,3.2,2.16,1.29.5,2.63.76,4.02.8.96.03,1.92.07,2.87-.02,1.54-.15,3-.58,4.35-1.37,1.04-.6,1.93-1.36,2.68-2.28,1.02-1.27,1.67-2.7,1.9-4.32.35-2.5-.23-4.7-2.06-6.52-.77-.76-1.67-1.29-2.69-1.64ZM146.2,30.18c-.41,1.19-1.27,1.52-2.37,1.26-.59-.14-.95-.6-1.12-1.18-.22-.74-.12-1.47.03-2.2.01-.07.12-.15.19-.16.37-.05.75-.09,1.13-.13.51,0,.99.07,1.43.32.82.46,1.02,1.23.72,2.1Z"/>
        <path class="cls-1" d="M45.96,38.26c-.01-.11-.02-.2-.03-.28-.06-.43-.15-.85-.17-1.28-.06-1.25-.11-2.5-.12-3.75-.01-1.37.06-2.73.04-4.1-.02-1.5-.07-3.01-.15-4.51-.03-.54-.12-1.09-.3-1.59-.41-1.16-1.29-1.89-2.37-2.4-1.52-.71-3.14-.96-4.79-1.03-1.94-.08-3.87.03-5.77.41-.8.16-1.58.41-2.37.63-.47.13-.64.44-.64.94.02,1.19-.02,2.39-.04,3.58,0,.29,0,.58,0,.9.12-.06.2-.1.28-.14.29-.15.57-.32.87-.45,1.12-.49,2.29-.82,3.49-.98.86-.11,1.72-.18,2.57.05.72.2,1.15.65.97,1.49-.96.22-1.91.44-2.86.65-1.66.38-3.31.81-4.82,1.64-.91.5-1.69,1.13-2.28,1.98-.85,1.22-1.1,2.6-.99,4.06.06.76.31,1.46.73,2.1.63.94,1.52,1.54,2.56,1.92,2.23.81,4.5.78,6.78.23.65-.16,1.27-.42,1.9-.65.18-.07.29-.05.31.15.06.45.05.45.5.45,2.09,0,4.19,0,6.28,0,.13,0,.25-.01.4-.02ZM37.74,34.37c-.56.07-1.13.15-1.69.17-.43.02-.87-.08-1.23-.32-.9-.59-.82-1.8.15-2.36.71-.41,1.49-.6,2.31-.64.32-.01.63,0,.95,0,0,.88,0,1.74,0,2.59,0,.48,0,.5-.49.56Z"/>
        <path class="cls-1" d="M85.37,34.53c-.02-1.69.02-3.37.03-5.06.01-1.94.05-3.89-.21-5.83-.11-.85-.45-1.6-1.06-2.22-.69-.72-1.54-1.14-2.46-1.45-1.28-.43-2.6-.61-3.94-.66-2.01-.07-4.01.05-5.98.47-.73.15-1.45.38-2.16.61-.46.15-.54.3-.55.78-.02,1.44-.04,2.89-.06,4.33,0,.08,0,.17,0,.29.26-.15.48-.28.71-.4,1.34-.66,2.75-1.04,4.23-1.22.79-.09,1.58-.13,2.37.1.6.18.97.63.95,1.2,0,.17-.06.27-.25.32-1.44.33-2.87.66-4.3,1.02-1.17.3-2.29.74-3.3,1.44-.78.54-1.42,1.2-1.85,2.05-.54,1.05-.71,2.18-.67,3.34.08,2,1.08,3.41,2.87,4.26,1.06.51,2.21.72,3.38.75,1.74.05,3.42-.2,5.01-.96.3-.14.36-.09.37.24,0,.23.09.34.34.34,1.88,0,3.75,0,5.63,0,.34,0,.67,0,1.01,0,.17,0,.25-.05.21-.25-.24-1.15-.31-2.33-.32-3.5ZM77.99,31.51c-.02.41,0,.83,0,1.24h0c0,.44,0,.88,0,1.32,0,.08-.08.22-.15.24-.98.23-1.97.4-2.96.07-.47-.15-.8-.47-.9-.96-.11-.54.03-1.01.47-1.36.63-.5,1.38-.69,2.15-.8.37-.05.74-.03,1.11-.06.25-.02.3.09.3.31Z"/>
        <path class="cls-1" d="M125.94,14.29c-.2,0-.42.1-.58.22-.46.35-.9.72-1.34,1.09-1.17.97-2.5,1.66-3.84,2.34-.17.09-.21.19-.21.36,0,2.02,0,4.05,0,6.07v.26c.8-.26,1.46-.72,2.1-1.19.64-.48,1.26-.98,1.89-1.48.03.01.06.03.09.04v16.02h9.04V14.31s-.07-.02-.09-.02c-2.35,0-4.71,0-7.06,0Z"/>
      </g>
      <g>
        <path d="M155.93,7.09c-.13-.58-.47-1-1.01-1.23-.39-.17-.8-.32-1.21-.45-.54-.17-1.09-.31-1.63-.47-.23-.07-.41-.23-.4-.5,0-.25.17-.4.39-.47.75-.23,1.76-.25,2.12.71.51-.1,1.02-.2,1.55-.31-.22-.76-.62-1.35-1.37-1.59-.99-.32-1.99-.34-2.97.03-1,.38-1.48,1.42-1.2,2.45.21.76.75,1.14,1.44,1.36.71.23,1.44.41,2.16.62.24.07.45.17.48.47.03.32-.09.57-.38.7-.56.25-1.14.26-1.7,0-.15-.07-.28-.23-.38-.37-.11-.16-.18-.36-.27-.54-.55.09-1.09.18-1.65.28.24.92.77,1.54,1.63,1.87.89.34,1.81.36,2.72.08.87-.26,1.5-.81,1.7-1.74,0-.03.04-.06.06-.09v-.67s-.06-.07-.07-.12Z"/>
        <path d="M1.97,7.9c-.08-.79.12-1.42.75-1.93.22-.18.39-.42.58-.63.06-.06.12-.11.22-.2.14.26.27.47.39.69.68,1.25,1.36,2.5,2.05,3.74.04.07.12.15.18.15.72.01,1.44,0,2.2,0-.05-.09-.08-.15-.12-.21-1.1-1.81-2.19-3.61-3.29-5.42-.13-.21-.18-.35.03-.57,1.01-1.08,1.99-2.19,2.98-3.28.06-.07.12-.15.21-.26C7.34,0,6.62,0,5.89,0c-.09,0-.2.08-.27.16-1.07,1.24-2.14,2.49-3.21,3.73-.12.14-.24.28-.37.41-.02,0-.05-.02-.07-.03V.02H.23v9.71h1.75c0-.62.05-1.23-.01-1.82Z"/>
        <path d="M41.59,9.42c.01-1.3.01-2.59.04-3.89,0-.44.09-.88.42-1.22.35-.36.79-.47,1.26-.32.43.14.51.52.53.92.02.61.04,1.23.05,1.84,0,.92,0,1.83,0,2.75,0,.12-.03.25.17.24.49,0,.98,0,1.52,0,0-.14,0-.26,0-.37.02-1.3.02-2.59.06-3.89.01-.42.1-.84.41-1.17.33-.36.75-.45,1.21-.32.39.11.49.45.54.81.02.19.05.38.05.57,0,1.37,0,2.73.01,4.1,0,.08,0,.17.01.26h1.66c0-.05.02-.09.02-.12,0-1.67,0-3.34-.03-5.01-.02-1.01-.55-1.7-1.44-1.95-.97-.26-1.76.06-2.42.77-.08.08-.15.17-.24.26-.78-1.44-2.71-1.55-3.95.02,0-.31,0-.57,0-.82,0-.06-.06-.17-.1-.17-.48-.01-.96,0-1.44,0v7.02h1.68c0-.12,0-.21,0-.31Z"/>
        <path d="M26.61,4.17c-1.16-2.06-3.88-1.99-5.16-.7-1.23,1.23-1.32,3.27-.62,4.67.62,1.24,1.7,1.77,3.05,1.75.86,0,1.63-.33,2.22-.96.72-.76,1.04-1.69,1.04-2.82,0-.63-.18-1.3-.53-1.94ZM25.1,7.63c-.32.53-.78.83-1.41.79-.62-.04-1.08-.37-1.32-.94-.35-.81-.33-1.65-.02-2.47.24-.64.84-1.01,1.5-.98.62.03,1.21.48,1.4,1.12.1.34.14.71.21,1.06-.05.51-.1.99-.36,1.43Z"/>
        <path d="M135.72,9.02c.07.21.15.46.23.71h1.62c-.06-.19-.12-.36-.17-.53-.21-.69-.16-1.4-.18-2.11-.02-.9,0-1.8-.03-2.69-.02-.69-.3-1.26-.96-1.53-1.15-.46-2.33-.49-3.46.06-.63.31-.9.91-1.08,1.58.52.1,1.01.2,1.51.3.04-.09.07-.17.1-.25.12-.25.27-.46.55-.55.4-.12.8-.12,1.2,0,.42.14.58.43.52,1.03-.03.28-.34.2-.51.3,0,0-.02,0-.03,0-.74.19-1.49.35-2.22.58-1.62.52-1.62,2.53-.78,3.32.71.67,1.56.8,2.45.47.43-.16.81-.46,1.23-.71ZM133.48,8.37c-.4-.36-.48-1.28.24-1.51.6-.19,1.2-.35,1.89-.55-.04.51-.02.95-.11,1.38-.17.83-1.41,1.23-2.02.68Z"/>
        <path d="M87.95,9.72s.03-.03.03-.04c-.01-1.73-.01-3.46-.05-5.19-.01-.56-.22-1.08-.69-1.45-.93-.74-2.32-.64-3.19.23-.14.14-.28.29-.47.5v-1.05h-1.53v7h1.67c0-.1,0-.18,0-.27,0-1.24,0-2.47.02-3.71.01-.53.06-1.06.49-1.45.38-.34.83-.46,1.32-.3.44.14.63.49.67.93.03.34.05.69.06,1.03,0,1.16,0,2.32,0,3.48,0,.09,0,.18,0,.28h1.67Z"/>
        <path d="M62.89,8.37c.08.45.33.82.71,1.1.91.66,2.16.47,2.94-.21.19-.17.38-.33.58-.51v.96h1.54V2.7c-.48,0-.93.01-1.37,0-.24,0-.3.08-.3.31-.01,1.42-.04,2.83-.07,4.25-.01.5-.29.86-.71,1.1-.69.38-1.49.1-1.67-.58-.06-.22-.08-.46-.08-.69-.01-1.37-.01-2.73-.02-4.1,0-.08,0-.17,0-.27h-1.68c0,.08-.02.15-.02.22,0,1.39,0,2.78,0,4.18,0,.42.05.84.13,1.26Z"/>
        <path d="M118.9,8.32c-.61.18-.86-.01-.86-.64,0-1.12,0-2.23,0-3.35,0-.06.01-.11.02-.2h1.14v-1.42h-1.16V.24c-.56.35-1.08.66-1.58.99-.07.05-.11.19-.12.29-.01.39,0,.77,0,1.19h-.8v1.44c.19,0,.36.01.53,0,.23-.02.27.07.27.28,0,1.25,0,2.51.02,3.76.01.68.18,1.3.9,1.57.67.25,1.32.14,1.97-.1.04-.02.1-.09.1-.13-.03-.42-.08-.85-.12-1.29-.13.04-.22.06-.31.09Z"/>
        <path d="M101.25,9.45c0,.09,0,.18.01.27h1.67V2.71c-.48,0-.94.01-1.4,0-.23,0-.29.06-.29.29,0,2.15,0,4.31,0,6.46Z"/>
        <path d="M102.93,0h-1.66v1.67h1.66V0Z"/>
      </g>
    </g>
  </g>
</svg>