<?xml version="1.0" encoding="UTF-8"?>
<svg id="Layer_2" data-name="Layer 2" xmlns="http://www.w3.org/2000/svg" viewBox="0 0 103.72 49.79">
  <g id="_1" data-name="1">
    <g>
      <g>
        <path d="M103.53.19v49.4h-49.4V.19h49.4ZM102.32,48.38V1.55s0-.1-.05-.14h-46.8s-.09-.02-.14.05v46.8s-.02.09.04.13h46.94Z"/>
        <path d="M93.46,33.07c0,.94,0,1.88,0,2.82,0,0,0,.02-.02.04,0,0-.02,0-.02,0s-.02,0-.02,0c-.02-.03-.05-.05-.08-.08l-1.51-1.51-.19-.19s-.02,0-.02-.02c0,0,0,0-.02-.02h-3.24s-.05.05-.05.08v1.11s.02.04.02.06c.05.03.11.02.16.02.49,0,.97,0,1.46,0,.11,0,.21-.03.31-.08.34-.18.69-.37,1.05-.56.05-.02.08-.06.14-.06,0,0,.02,0,.02,0,0,0,0,.02,0,.02,0,.89,0,1.78,0,2.67v.2c-.07.03-.1-.02-.14-.04-.37-.24-.73-.48-1.09-.72-.1-.06-.2-.1-.33-.1-.48,0-.96,0-1.45,0h-.12c-.05.04-.05.08-.05.11v.91c.28.23.57.47.86.7.28.23.57.46.84.68,0,.05-.04.05-.05.05-.42.02-5.63,0-5.81-.02,0,0,0-.02,0-.02l.02-.02s0,0,.02-.02c.54-.44,1.08-.88,1.63-1.34l.02-.02s0-.02.02-.02v-3.3c-.57-.46-1.14-.91-1.7-1.36.02-.02.02-.03.02-.04,0,0,0,0,.02,0h9.2s.06,0,.08,0c0,.02.02.02.02.02v.02Z"/>
        <path d="M89.49,24.91s0,.03.02.04c-.56.47-1.14.95-1.7,1.42v1.92c-.06.05-.1,0-.13-.02-.27-.16-.53-.32-.8-.49-.09-.06-.18-.07-.28-.02-.6.25-1.22.42-1.86.51-.63.09-1.26.1-1.89.04-.58-.06-1.14-.2-1.67-.43-.51-.23-.97-.53-1.36-.94-.34-.36-.58-.77-.68-1.27-.13-.66-.04-1.28.31-1.87.21-.37.49-.66.81-.93.66-.54,1.42-.9,2.26-1.08.59-.13,1.19-.18,1.79-.14.88.05,1.7.27,2.45.76.02.02.04.02.08.05.29-.17.55-.4.84-.56.02,0,.02,0,.03.02,0,0,0,0,0,.02v2.59s-.03,0-.04,0c-.04,0-.06-.04-.08-.06-.3-.28-.6-.54-.94-.77-.56-.38-1.15-.66-1.81-.79-.4-.08-.8-.12-1.21-.08-.6.06-1.05.36-1.35.88-.13.23-.21.47-.25.73-.08.48-.08.96.03,1.43.02.1.05.2.09.29.18.47.5.79.98.94.56.18,1.12.18,1.68,0,.24-.07.46-.19.66-.36v-.34c-.62-.48-1.26-.94-1.89-1.42.02-.07.08-.05.12-.05h5.81Z"/>
        <path d="M72.62,10.92c.02.05-.02.07-.05.09-.43.33-.88.65-1.31.98-.12.08-.23.18-.33.3-.64.76-1.29,1.53-1.94,2.29-.03.04-.07.08-.11.12-.04.05-.05.09-.05.15v.68c.58.46,1.15.92,1.72,1.37v.02s-.02.02-.04.02h-5.89c-.03-.08.03-.09.06-.11.5-.39,1-.78,1.5-1.17.05-.04.1-.08.15-.12v-.78c-.04-.05-.09-.11-.14-.18-.67-.79-1.34-1.58-2.01-2.38-.11-.12-.22-.23-.37-.32-.4-.27-.81-.55-1.22-.82-.05-.04-.11-.06-.14-.13h5.62s0,.02,0,.02c0,.03-.04.05-.05.07-.31.28-.62.56-.92.83-.05.05-.11.11-.17.16.11.16.77.92,1.2,1.38.03.03.05.06.11.06.41-.5.82-1.01,1.24-1.53-.39-.32-.78-.64-1.15-.95,0-.07.05-.05.09-.05h4.19Z"/>
      </g>
      <g>
        <path d="M32.41,28.42c2.05-2.52,2.89-5.8,2.65-9.04-.44-5.94-5.22-9.64-13.07-7.76-1.17.28-2.28-.69-2.07-1.87.27-1.52,1.6-2.64,3.14-2.64h2.55c2.07,0,3.19-2.65,1.34-3.58-2.43-1.21-5.46-1.85-9.03-2.12-1.23-.09-2.33.78-2.55,2-.17.93-1.11,1.48-2.05,1.3C6.75,3.48-.47,9.03.02,14.3c.08.79,1.21.53,1.51-.2,2.72-6.58,15.36-6.57,13.29-1.56-1.21,2.94-4.41,4.44-6.81,6.54-2.92,2.56-6.18,6.04-7.2,9.93-.71,2.71,2.03,4.79,4.82,4.54,3.64-.33,6.28-1.03,8.22-1.95,1.66-.79.68-3.16-1.16-3.16-1.66,0-2.5-2-1.34-3.18,25.22-25.71,21.06,3.52,10.61,6.35-.95.26-1.95.29-2.91.06-.32-.08-.59.32-.3.49,3.27,1.95,9.97.8,13.65-3.73Z"/>
        <g>
          <g>
            <path d="M5.65,43.69s0-.09-.04-.12h-2.37v1.31s.07.01.1.01c.13,0,.27,0,.4,0,.13,0,.21.06.21.16,0,.13-.04.22-.16.26-.21.06-.43.08-.65.04-.43-.08-.72-.33-.86-.74-.1-.28-.11-.56-.05-.85.05-.24.15-.44.33-.6.29-.26.65-.36,1.03-.39.28-.02.57,0,.85.04.26.05.51.12.76.22.14.06.26.14.39.23,0-.6,0-1.17-.04-1.75-.21-.04-.41-.08-.6-.12-.25-.06-.5-.12-.76-.14-.3-.03-.6-.04-.9-.02-.27.02-.54.04-.81.09-.28.05-.56.1-.83.22-.55.25-.99.64-1.29,1.17-.13.22-.23.45-.29.7-.02.09-.01.19-.08.26v.82s.02.02.04.04c.03.25.1.49.21.71.19.4.48.72.84.97.28.2.6.34.92.45.27.09.54.14.82.17.08.05.17.03.25.03.12,0,.23.02.35.02.42,0,.84-.02,1.25-.08.26-.04.51-.1.77-.15.09-.02.21-.01.21-.17,0-.94,0-1.88,0-2.81Z"/>
            <path d="M26.49,46c0-.63.01-1.26.01-1.89,0-.25-.02-.5-.12-.74-.19-.47-.55-.71-1.03-.79-.15-.03-.3-.04-.44.01-.15,0-.29.06-.43.12-.25.09-.46.26-.66.43-.02-.01-.03-.02-.04-.03-.25-.29-.55-.49-.92-.55-.21-.07-.42-.05-.62,0-.36.08-.66.26-.89.54-.01.01-.03.02-.06,0v-.38h-1.81v4.06h1.96s0-.08,0-.11c0-.62,0-1.23,0-1.85,0-.14,0-.28.03-.42.04-.22.31-.35.48-.23.12.09.15.22.15.36,0,.71,0,1.42,0,2.13,0,.04,0,.07,0,.12h1.93s0-.08,0-.12c0-.7,0-1.4,0-2.1,0-.24.04-.4.29-.47.04.02.09.03.13.05.15.09.2.24.2.4,0,.7,0,1.41,0,2.11,0,.05,0,.1.04.12h1.82s.02-.07.02-.1c0-.23-.01-.45-.01-.68Z"/>
            <path d="M15.46,42.67s-.05,0-.07,0c-.58,0-1.15,0-1.73.01,0,0-.01,0-.02,0-.07,0-.11.03-.13.1-.02.07-.04.13-.06.2-.12.37-.22.74-.33,1.11-.07.25-.15.49-.22.74,0,0-.02,0-.02,0-.18-.71-.37-1.42-.55-2.13h-2.01c.06.14.1.27.15.39.14.35.27.7.41,1.05.19.49.39.97.58,1.46.16.4.32.8.47,1.2.03.08.08.16.05.26-.05.17-.1.34-.18.5-.11.21-.26.39-.5.46-.32.1-.63,0-.94-.11-.1-.04-.19-.09-.31-.1.01.04.02.07.03.1.05.3.09.6.15.89.02.11,0,.25.17.29.3.07.6.17.91.18.19.06.39.05.58.02.22-.05.43-.1.62-.22.26-.16.42-.42.59-.67.19-.29.33-.61.48-.92.19-.39.34-.79.49-1.19.11-.28.21-.56.31-.84.12-.32.24-.65.35-.97.1-.28.19-.56.31-.83.11-.26.24-.51.35-.77.03-.07.09-.13.07-.21Z"/>
            <path d="M34.85,44.19c-.21-.6-.67-.93-1.28-1.06-.25-.05-.5-.05-.76-.04-.03,0-.07.03-.11-.02.33-.63.73-1.21,1.21-1.77-.06,0-.1,0-.13,0-.69,0-1.37,0-2.06,0-.11,0-.18.04-.23.12-.29.4-.55.82-.77,1.27-.14.28-.25.57-.34.87-.08.26-.14.52-.17.8-.05.37-.05.73.04,1.09.17.66.61,1.07,1.26,1.28.27.08.54.11.82.13.45.03.88,0,1.29-.18.68-.3,1.13-.79,1.28-1.54.06-.32.05-.63-.05-.94ZM32.81,45.1c-.09.13-.22.19-.39.16-.26-.06-.35-.18-.34-.51,0-.29.02-.31.29-.31.19,0,.38.02.49.21.09.16.04.32-.05.45Z"/>
            <path d="M10.33,46.66c-.02-.09-.04-.18-.04-.27,0-.42-.03-.83-.01-1.25.02-.48-.01-.95-.03-1.43,0-.1.01-.19-.03-.28-.04-.19-.12-.36-.27-.48-.27-.24-.61-.32-.95-.39-.32-.06-.66-.05-.98-.04-.12,0-.24-.02-.35.03-.33.03-.65.11-.96.21-.08.03-.11.1-.12.18,0,.18,0,.37,0,.55,0,.16,0,.32,0,.49.32-.19.66-.3,1.01-.36.11,0,.22.01.32-.03,0,0,.02,0,.03,0,.07.04.14.02.22.03,0,0,.02,0,.03,0,.02.02.04.04.08.03,0,0,.02,0,.03,0,0,.02.02.03.04.03h0s.04.06.07.07c0,.06.02.11,0,.17-.02.01-.05.03-.07.04-.23.05-.45.1-.68.16-.42.09-.82.22-1.17.47-.48.35-.62.93-.48,1.43.12.42.44.63.84.75.27.08.56.1.84.09.2,0,.4-.04.6-.1.14-.04.26-.1.39-.13q.05.04.08.12h1.58s.01-.08,0-.12ZM8.57,45.9c-.06,0-.1,0-.13.01-.03.02-.05.03-.08.04.03,0,.06-.01.08-.04-.09,0-.17,0-.25.03-.11,0-.22,0-.32-.06-.22-.13-.23-.39-.02-.52.23-.14.48-.18.76-.14-.03.23.04.46-.04.68Z"/>
            <path d="M19.21,45.78c-.02-.76.06-1.53-.05-2.29-.04-.27-.17-.46-.37-.61-.35-.25-.77-.31-1.18-.34-.36-.03-.72-.01-1.09.04-.3.04-.59.11-.88.2-.06.02-.11.06-.11.14,0,.33-.01.66-.02.99,0,.03,0,.06.03.08.12-.06.24-.13.36-.17.23-.08.47-.14.72-.17.19-.02.36-.02.54.03.07.02.13.06.17.13.06.1.04.19-.05.21-.16.03-.32.07-.48.11-.36.09-.73.16-1.06.34-.63.35-.8.94-.67,1.57.11.52.67.81,1.12.85.02.03.06.03.09.03.17.01.35.01.52,0,.03,0,.07,0,.1-.03.18-.01.35-.07.53-.13.07-.02.14-.09.22-.06.01.04,0,.07.02.11h1.61s0-.04,0-.06c-.06-.31-.07-.63-.07-.94ZM17.53,45.85c-.04.08-.13.06-.19.07-.19.03-.38.05-.55-.05-.18-.1-.19-.37-.02-.49.23-.16.49-.19.77-.18v.64Z"/>
            <path d="M29.83,41.38c-.48,0-.96,0-1.43,0-.03,0-.07,0-.1.02-.07,0-.12.05-.17.09-.26.23-.54.43-.85.59-.1.05-.22.09-.29.16v1.48c.23-.06.59-.34.86-.57.06.01.04.07.04.1,0,1.12,0,2.25,0,3.37,0,.04-.01.08.02.12h2.04v-5.34s-.08-.03-.11-.03Z"/>
          </g>
          <g>
            <path d="M1.13,38.97c.15-.17.31-.33.46-.5.08-.09.18-.16.22-.28h-.52c-.27.31-.55.63-.84.97v-.97H.03s.01.07.01.1c0,.66,0,1.32,0,1.98,0,.04,0,.08.03.11h.37c0-.15.02-.29,0-.43-.04-.29.18-.41.34-.59.02.04.04.06.05.09.15.28.31.57.46.85.02.04.04.09.1.09.15,0,.3,0,.48,0-.28-.46-.54-.9-.81-1.34.02-.03.03-.06.05-.08Z"/>
            <path d="M22.78,38.57h.38v-.38h-.38v.38Z"/>
            <path d="M19.77,39.16c-.02-.18-.15-.34-.34-.38-.02-.04-.06-.03-.09-.03-.03,0-.05,0-.08,0-.04,0-.08-.01-.11.03-.14.01-.22.12-.32.19-.03-.04-.02-.07-.02-.11,0-.03-.01-.07-.04-.07-.11,0-.22-.02-.32,0v1.57h.37s0-.05,0-.07c0-.29,0-.58.02-.87,0-.07.01-.15.05-.22.06-.1.2-.17.31-.14.12.03.18.11.19.25.02.31,0,.63,0,.94,0,.04,0,.08.03.11.12,0,.24.01.37-.01,0-.04,0-.07,0-.1-.01-.37,0-.74-.03-1.11Z"/>
            <path d="M30.89,40.15c0-.3,0-.6,0-.9,0-.02,0-.04-.02-.05,0-.16-.05-.3-.21-.37-.06-.02-.12-.04-.18-.05-.1-.07-.22-.02-.32-.03-.03,0-.08-.01-.1.03-.24.03-.44.24-.41.43.11.01.22.07.33.05.03-.12.11-.18.23-.18.1,0,.21-.01.26.09.03.06.06.14,0,.19-.19.05-.36.09-.54.14-.17.05-.29.14-.33.32-.05.18-.01.33.12.46.13.12.28.17.46.13.13-.03.24-.11.35-.18.04.05.02.12.07.15h.35c0-.08-.06-.15-.05-.23ZM30.37,40.05c-.16.11-.34.11-.41-.1-.03-.08,0-.14.07-.19.05-.04.38-.13.46-.13-.03.15.03.31-.12.42Z"/>
            <path d="M6.02,39.17c-.1-.2-.26-.34-.49-.39-.01-.02-.03-.04-.05,0-.02,0-.04,0-.05,0-.08-.04-.17-.04-.25.01-.12.02-.23.07-.32.15-.26.24-.32.54-.25.88.07.31.25.51.56.59.12.03.24.05.35-.01.26-.02.54-.34.56-.63.05-.07.05-.31,0-.39,0-.08-.04-.14-.07-.21ZM5.31,40.08c-.16-.02-.25-.13-.3-.27-.06-.18-.05-.36.04-.53.07-.13.21-.2.34-.17.14.02.26.15.29.3,0,.03.01.07.02.1v.21c-.02.19-.17.39-.39.37Z"/>
            <path d="M35.09,39.83c-.02-.18-.12-.3-.3-.36-.17-.06-.34-.1-.51-.15-.07-.02-.14-.05-.17-.13.09-.2.38-.18.58.04.11-.01.22-.04.34-.07-.03-.14-.09-.25-.21-.31-.26-.13-.52-.14-.79-.03-.15.06-.25.18-.26.35-.02.2.03.36.22.46.16.08.33.12.51.17.19.04.21.07.17.24-.2.14-.43.15-.58-.17-.12.04-.24.02-.36.08.01.11.07.2.14.27.22.24.73.28,1.02.08.16-.11.24-.27.22-.46Z"/>
            <path d="M15.06,39.08c0,.26,0,.51-.01.77,0,.11-.11.21-.24.24-.12.02-.2-.02-.27-.12-.03-.05-.01-.11-.02-.17v-1.01c-.14,0-.27-.01-.41,0-.01.13,0,.25,0,.38,0,.11,0,.23,0,.34,0,.11,0,.21,0,.32,0,.06-.01.12.03.17,0,.18.14.35.31.38.03.04.07.04.11.03.03,0,.07,0,.1,0,.04,0,.08,0,.11-.03.12-.02.2-.13.31-.19.04.06-.01.13.04.17h.34v-1.59h-.37c0,.1-.02.19-.03.29Z"/>
            <path d="M22.78,38.8v1.58h.37v-1.6c-.13.01-.25-.02-.37.02Z"/>
            <path d="M11.16,39.23s0-.08-.03-.1c0-.03,0-.07-.02-.1-.12-.28-.51-.36-.76-.16-.05.04-.08.1-.16.1-.01-.02-.02-.04-.03-.05-.19-.23-.55-.22-.78.03-.05,0-.02-.04-.03-.07,0-.03.02-.07-.03-.07h0s0-.03-.02-.03c-.11,0-.21,0-.33,0v1.6c.14.01.27.01.41,0v-1.01c0-.12.06-.22.17-.27.1-.05.2-.04.29.06.06.38.01.79.03,1.19,0,.03,0,.04.04.03.11,0,.22,0,.33,0,.05,0,.05-.04.05-.07,0-.33,0-.65,0-.98.01-.13.12-.25.22-.26.14,0,.24.03.24.26h0c0,.33,0,.66,0,.99,0,.03,0,.07.05.05.1,0,.21,0,.31,0,.07,0,.05-.05.05-.08,0-.36,0-.72,0-1.07Z"/>
            <path d="M26.8,40.04s-.02,0-.03,0c-.06,0-.12.01-.18,0-.01-.02-.03-.05-.03-.07,0-.28,0-.56,0-.84h.26c0-.12.03-.23-.01-.35h-.25v-.54c-.1.06-.18.11-.27.16-.08.05-.13.11-.11.21,0,.05,0,.11,0,.16-.06.03-.12,0-.17.03v.32c.06.02.11-.01.17.04,0,.29,0,.58,0,.88,0,.15.04.28.18.34.16.07.33.05.48-.03v-.19s.04-.1-.03-.12Z"/>
          </g>
        </g>
      </g>
    </g>
  </g>
</svg>